<?xml version="1.0" encoding="utf-8"?>
<!-- Generator: Adobe Illustrator 28.1.0, SVG Export Plug-In . SVG Version: 6.00 Build 0)  -->
<svg version="1.1" id="Firefly_Logo" xmlns="http://www.w3.org/2000/svg" xmlns:xlink="http://www.w3.org/1999/xlink" x="0px"
	 y="0px" viewBox="0 0 1000 1000" style="enable-background:new 0 0 1000 1000;" xml:space="preserve">
<style type="text/css">
	.st0{fill:url(#SVGID_1_);}
	.st1{fill:url(#SVGID_00000176016227416922689780000003196436955051068604_);}
	.st2{fill:url(#SVGID_00000142883429660513861310000012462871863102555069_);}
	.st3{fill:url(#SVGID_00000080893977729265245950000011840086370277000115_);}
	.st4{fill:url(#SVGID_00000003092815617423262500000017590682538017411508_);}
</style>
<g id="Icon">
	<linearGradient id="SVGID_1_" gradientUnits="userSpaceOnUse" x1="330.3474" y1="512.0366" x2="670.2794" y2="512.0366">
		<stop  offset="5.000000e-02" style="stop-color:#4000B2"/>
		<stop  offset="0.27" style="stop-color:#4F00A3"/>
		<stop  offset="0.7" style="stop-color:#77007E"/>
		<stop  offset="0.99" style="stop-color:#970061"/>
	</linearGradient>
	<path class="st0" d="M330.7,409.9L330.7,409.9c0,0,70.7,29.4,148.8,29.4c49.9,0,91.9-8.2,124.6-24.3c14.8-7.3,26.9-10.9,36.8-10.9
		c11.5,0,20.6,4.9,25.9,13.8c20.3,34.5-54.4,143.6-70.3,172.1c0,0-58.7,26-100.3,29.9c-0.5,0-39-22.1-79.7-46.5
		C359.5,539.4,326.4,476.2,330.7,409.9z"/>
	
		<linearGradient id="SVGID_00000116217817097658214500000007719921923045956487_" gradientUnits="userSpaceOnUse" x1="257.7497" y1="300.0265" x2="742.2503" y2="300.0265">
		<stop  offset="7.458905e-08" style="stop-color:#BD0079"/>
		<stop  offset="0.42" style="stop-color:#A037AB"/>
		<stop  offset="0.77" style="stop-color:#8B5FCF"/>
		<stop  offset="0.95" style="stop-color:#846FDE"/>
	</linearGradient>
	<path style="fill:url(#SVGID_00000116217817097658214500000007719921923045956487_);" d="M597.2,570.3c1.7-49.6-12.3-84.8-13.6-88
		l-0.4-0.8l-0.3-1.2c-3.6-13.2-10.2-26.2-20.2-39.8c-50.4-65.5-111.8-85.8-182.9-109.2c-82.3-27.1-109.7-80.9-118.3-121.3
		C246.4,138.9,279.1,56.8,318,21.5L330.7,10l7.1,15.6C387,132.7,448.7,156,526.8,185.3c31.5,11.9,64,24.1,98.7,43
		c41,22.4,82.5,52,108.1,116.5c6.4,16.1,9.1,34.9,8.6,58.9c-0.9,42.5-14.7,81.9-39.8,113.9c-20.9,26.7-51.2,49-87.7,64.7l-18.2,7.8
		L597.2,570.3z"/>
	
		<linearGradient id="SVGID_00000113310753528469173430000017008648734654560910_" gradientUnits="userSpaceOnUse" x1="257.7497" y1="699.9735" x2="742.2503" y2="699.9735">
		<stop  offset="7.458905e-08" style="stop-color:#BD0079"/>
		<stop  offset="0.46" style="stop-color:#E03B37"/>
		<stop  offset="0.78" style="stop-color:#F6600F"/>
		<stop  offset="0.95" style="stop-color:#FF6F00"/>
	</linearGradient>
	<path style="fill:url(#SVGID_00000113310753528469173430000017008648734654560910_);" d="M597.2,970.2
		c1.7-49.5-12.3-84.7-13.6-87.9l-0.4-0.8l-0.3-1.2c-3.6-13.2-10.2-26.2-20.2-39.8c-50.4-65.5-111.8-85.8-182.9-109.2
		c-82.3-27.1-109.7-80.9-118.3-121.3c-15.1-71.2,17.6-153.3,56.5-188.5l12.7-11.5l7.1,15.6C387,532.7,448.7,555.9,526.8,585.3
		c31.5,11.9,64,24.1,98.7,43c41,22.4,82.5,52,108.1,116.5c6.4,16.1,9.1,34.9,8.6,58.9c-0.9,42.5-14.7,81.9-39.8,113.9
		c-20.9,26.7-51.2,49-87.7,64.7l-18.2,7.8L597.2,970.2z"/>
	
		<linearGradient id="SVGID_00000161596593063131158870000015016972714388853951_" gradientUnits="userSpaceOnUse" x1="535.8314" y1="10" x2="535.8314" y2="590.0529">
		<stop  offset="0" style="stop-color:#BD0079"/>
		<stop  offset="0.42" style="stop-color:#A037AB"/>
		<stop  offset="0.77" style="stop-color:#8B5FCF"/>
		<stop  offset="0.95" style="stop-color:#846FDE"/>
	</linearGradient>
	<path style="fill:url(#SVGID_00000161596593063131158870000015016972714388853951_);" d="M702.4,517.6
		c25.1-32,38.8-71.4,39.8-113.9c0.5-24-2.2-42.8-8.6-58.9c-25.6-64.5-67.1-94.1-108.1-116.5c-34.7-18.9-67.2-31.2-98.7-43
		C448.7,156,387,132.7,337.9,25.6L330.7,10c0,0-28.1,227.4,176.4,274.8c255.1,59.1,89.4,305.3,89.4,305.3l18.2-7.8
		C651.2,566.6,681.5,544.3,702.4,517.6z"/>
	
		<linearGradient id="SVGID_00000021105235746594036910000004057194057798885811_" gradientUnits="userSpaceOnUse" x1="535.8314" y1="409.9471" x2="535.8314" y2="990">
		<stop  offset="1.065558e-08" style="stop-color:#BD0079"/>
		<stop  offset="0.46" style="stop-color:#E03B37"/>
		<stop  offset="0.78" style="stop-color:#F6600F"/>
		<stop  offset="0.95" style="stop-color:#FF6F00"/>
	</linearGradient>
	<path style="fill:url(#SVGID_00000021105235746594036910000004057194057798885811_);" d="M702.4,917.5
		c25.1-32,38.8-71.4,39.8-113.9c0.5-24-2.2-42.8-8.6-58.9c-25.6-64.5-67.1-94.1-108.1-116.5c-34.7-18.9-67.2-31.2-98.7-43
		c-78.1-29.4-139.7-52.6-188.9-159.8l-7.1-15.6c0,0-28.1,227.4,176.4,274.8C762.2,743.9,596.5,990,596.5,990l18.2-7.8
		C651.2,966.6,681.5,944.2,702.4,917.5z"/>
</g>
</svg>
