<?xml version="1.0" encoding="utf-8"?>
<!-- Generator: Adobe Illustrator 28.1.0, SVG Export Plug-In . SVG Version: 6.00 Build 0)  -->
<svg version="1.1" id="Firefly_Logo" xmlns="http://www.w3.org/2000/svg" xmlns:xlink="http://www.w3.org/1999/xlink" x="0px"
	 y="0px" viewBox="0 0 1000 450" style="enable-background:new 0 0 1000 450;" xml:space="preserve">
<style type="text/css">
	.st0{fill:url(#SVGID_1_);}
	.st1{fill:url(#SVGID_00000027590843732112149700000000465760619549057669_);}
	.st2{fill:url(#SVGID_00000077316497150736749110000014936809150710341527_);}
	.st3{fill:url(#SVGID_00000078750311179640324030000017789048928807027853_);}
	.st4{fill:url(#SVGID_00000134219418849097690600000003466378214974596261_);}
	.st5{fill:#77007E;}
	.st6{fill:url(#SVGID_00000174582190378036898140000013456742688888279194_);}
	.st7{fill:url(#SVGID_00000086678613184324127480000015505229102764907416_);}
	.st8{fill:url(#SVGID_00000087376951710645345490000006346425452752506003_);}
	.st9{fill:url(#SVGID_00000094586045077424501190000009083165171400475558_);}
	.st10{fill:url(#SVGID_00000125581427781214405610000006269687828690572468_);}
	.st11{fill:url(#SVGID_00000001659022751925936170000014725479993122487428_);}
	.st12{fill:url(#SVGID_00000016037326461659960200000000399606707710284162_);}
	.st13{fill:url(#SVGID_00000059305380602290198860000003045810004668898185_);}
	.st14{fill:url(#SVGID_00000182522387033874430190000007621048922004008584_);}
	.st15{fill:url(#SVGID_00000129165876137511175870000014014086809422400129_);}
	.st16{fill:url(#SVGID_00000075137295107474073610000007516518973494956436_);}
	.st17{fill:url(#SVGID_00000137099297056779242790000013878856735780116644_);}
	.st18{fill:url(#SVGID_00000085972111554138591970000003872688633018109605_);}
	.st19{fill:url(#SVGID_00000160887502619267244720000005421094120753875348_);}
</style>
<g>
	<g id="Icon">
		<linearGradient id="SVGID_1_" gradientUnits="userSpaceOnUse" x1="42.7541" y1="230.4306" x2="196.1224" y2="230.4306">
			<stop  offset="5.000000e-02" style="stop-color:#4000B2"/>
			<stop  offset="0.27" style="stop-color:#4F00A3"/>
			<stop  offset="0.7" style="stop-color:#77007E"/>
			<stop  offset="0.99" style="stop-color:#970061"/>
		</linearGradient>
		<path class="st0" d="M42.9,184.4L42.9,184.4c0,0,31.9,13.3,67.1,13.3c22.5,0,41.4-3.7,56.2-11c6.7-3.3,12.1-4.9,16.6-4.9
			c5.2,0,9.3,2.2,11.7,6.2c9.1,15.6-24.5,64.8-31.7,77.6c0,0-26.5,11.7-45.3,13.5c-0.2,0-17.6-10-36-21
			C55.9,242.8,41,214.3,42.9,184.4z"/>
		
			<linearGradient id="SVGID_00000144327635421133228210000006823689005325058211_" gradientUnits="userSpaceOnUse" x1="10" y1="134.7773" x2="228.5937" y2="134.7773">
			<stop  offset="7.458905e-08" style="stop-color:#BD0079"/>
			<stop  offset="0.42" style="stop-color:#A037AB"/>
			<stop  offset="0.77" style="stop-color:#8B5FCF"/>
			<stop  offset="0.95" style="stop-color:#846FDE"/>
		</linearGradient>
		<path style="fill:url(#SVGID_00000144327635421133228210000006823689005325058211_);" d="M163.2,256.7c0.8-22.4-5.6-38.3-6.1-39.7
			l-0.2-0.3l-0.1-0.5c-1.6-6-4.6-11.8-9.1-17.9c-22.7-29.6-50.4-38.7-82.5-49.3c-37.1-12.2-49.5-36.5-53.4-54.7
			C4.9,62.1,19.6,25,37.2,9.1l5.7-5.2l3.2,7c22.2,48.3,50,58.8,85.2,72.1c14.2,5.3,28.9,10.9,44.5,19.4
			c18.5,10.1,37.2,23.5,48.8,52.5c2.9,7.3,4.1,15.7,3.9,26.6c-0.4,19.2-6.6,37-17.9,51.4c-9.4,12-23.1,22.1-39.6,29.2l-8.2,3.5
			L163.2,256.7z"/>
		
			<linearGradient id="SVGID_00000039818160849177785910000014324129115456134021_" gradientUnits="userSpaceOnUse" x1="10" y1="315.2227" x2="228.5937" y2="315.2227">
			<stop  offset="7.458905e-08" style="stop-color:#BD0079"/>
			<stop  offset="0.46" style="stop-color:#E03B37"/>
			<stop  offset="0.78" style="stop-color:#F6600F"/>
			<stop  offset="0.95" style="stop-color:#FF6F00"/>
		</linearGradient>
		<path style="fill:url(#SVGID_00000039818160849177785910000014324129115456134021_);" d="M163.2,437.1c0.8-22.4-5.5-38.2-6.1-39.7
			l-0.2-0.3l-0.1-0.6c-1.6-6-4.6-11.8-9.1-17.9c-22.7-29.6-50.4-38.7-82.5-49.3c-37.1-12.2-49.5-36.5-53.4-54.7
			c-6.8-32.1,7.9-69.2,25.5-85.1l5.7-5.2l3.2,7c22.2,48.3,50,58.8,85.2,72.1c14.2,5.3,28.9,10.9,44.5,19.4
			c18.5,10.1,37.2,23.5,48.8,52.5c2.9,7.3,4.1,15.7,3.9,26.6c-0.4,19.2-6.6,36.9-17.9,51.4c-9.4,12-23.1,22.1-39.6,29.2l-8.2,3.5
			L163.2,437.1z"/>
		
			<linearGradient id="SVGID_00000133499482392919049150000007735951191195748748_" gradientUnits="userSpaceOnUse" x1="135.463" y1="3.9251" x2="135.463" y2="265.6295">
			<stop  offset="0" style="stop-color:#BD0079"/>
			<stop  offset="0.42" style="stop-color:#A037AB"/>
			<stop  offset="0.77" style="stop-color:#8B5FCF"/>
			<stop  offset="0.95" style="stop-color:#846FDE"/>
		</linearGradient>
		<path style="fill:url(#SVGID_00000133499482392919049150000007735951191195748748_);" d="M210.6,232.9
			c11.3-14.4,17.5-32.2,17.9-51.4c0.2-10.8-1-19.3-3.9-26.6c-11.6-29.1-30.3-42.4-48.8-52.5c-15.7-8.5-30.3-14.1-44.5-19.4
			C96.2,69.8,68.3,59.3,46.1,11l-3.2-7c0,0-12.7,102.6,79.6,124c115.1,26.7,40.4,137.7,40.4,137.7l8.2-3.5
			C187.5,255.1,201.2,245,210.6,232.9z"/>
		
			<linearGradient id="SVGID_00000031192176344808940030000009885505902283260851_" gradientUnits="userSpaceOnUse" x1="135.463" y1="184.3705" x2="135.463" y2="446.0749">
			<stop  offset="1.065558e-08" style="stop-color:#BD0079"/>
			<stop  offset="0.46" style="stop-color:#E03B37"/>
			<stop  offset="0.78" style="stop-color:#F6600F"/>
			<stop  offset="0.95" style="stop-color:#FF6F00"/>
		</linearGradient>
		<path style="fill:url(#SVGID_00000031192176344808940030000009885505902283260851_);" d="M210.6,413.4
			c11.3-14.4,17.5-32.2,17.9-51.4c0.2-10.8-1-19.3-3.9-26.6c-11.6-29.1-30.3-42.4-48.8-52.5c-15.7-8.5-30.3-14.1-44.5-19.4
			c-35.2-13.3-63-23.7-85.2-72.1l-3.2-7c0,0-12.7,102.6,79.6,124c115.1,26.7,40.4,137.7,40.4,137.7l8.2-3.5
			C187.5,435.5,201.2,425.4,210.6,413.4z"/>
	</g>
	<g id="Name">
		<path class="st5" d="M672.9,247.1v-12.5c0-18.3-4.8-32.9-14.4-43.7c-9.6-10.8-23.8-16.2-42.6-16.2c-18.9,0-33.5,5.5-43.6,16.3
			c-10.1,10.9-15.2,25.4-15.2,43.6v6.8c0,18.3,5.1,32.9,15.2,43.7c10.1,10.8,25.1,16.2,45,16.2c17.3,0,30.8-3.7,40.8-11.2
			c8.6-6.5,13.4-14.8,14.5-24.9h-1.8H646h-8c-1.2,2.5-3.2,4.6-5.9,6.4c-4,2.7-8.9,4-14.6,4c-6.9,0-12.5-1.7-16.6-5
			c-4.3-3.5-6.9-9.3-7.7-17.4l-0.6-6.2H671H672.9z M593.3,222.7c0.7-7.6,2.8-13.1,6.3-16.7c3.7-3.8,8.9-5.7,15.4-5.7
			c6.6,0,11.7,1.9,15.4,5.7c3.5,3.6,5.6,9.1,6.3,16.7l0.6,6.2h-44.7L593.3,222.7z"/>
		<path class="st5" d="M441.5,121v43.1h-43.1V121H441.5z M399.1,298.1V177.8h41.8v120.3H399.1z"/>
		<path class="st5" d="M534.9,174.6c1.5,0,2.6,0.1,3.4,0.2v42.7h-6.8c-12,0-20.1,2.6-24.3,7.9v72.7h-41.8v-86.3l-2.3-34.1h37.7
			l2.5,13.4C511.3,180.1,521.8,174.6,534.9,174.6z"/>
		<path class="st5" d="M350.2,165.3v12.5h24.3v36.3h-24.3v84h-41.8v-84h-18.2v-36.3h18.2v-17c0-31.6,16-47.5,48.1-47.5
			c9.7,0,16.4,1.1,20.2,3.2v34.1c-2.3-0.9-5.8-1.4-10.4-1.4c-5.3,0-9.3,1.1-12,3.3C351.6,154.6,350.2,158.9,350.2,165.3z"/>
		<path class="st5" d="M751.6,165.3v12.5h24.3v36.3h-24.3v84h-41.8v-84h-18.2v-36.3h18.2v-17c0-31.6,16-47.5,48.1-47.5
			c9.7,0,16.4,1.1,20.2,3.2v34.1c-2.3-0.9-5.8-1.4-10.4-1.4c-5.3,0-9.3,1.1-12,3.3C753,154.7,751.6,158.9,751.6,165.3z"/>
		<path class="st5" d="M800.4,298.1V116.5h41.8v181.6H800.4z"/>
		<path class="st5" d="M925.3,248.2l19.3-70.4H990l-42,113.5l-15,52.2h-50l19.5-52.2l-42-113.5H906L925.3,248.2z"/>
		<g>
			<g>
				
					<linearGradient id="SVGID_00000078026618292695211680000012394925090094228667_" gradientUnits="userSpaceOnUse" x1="277.6723" y1="198.8706" x2="364.1824" y2="198.8706">
					<stop  offset="0" style="stop-color:#BD0079"/>
					<stop  offset="0.46" style="stop-color:#E03B37"/>
					<stop  offset="0.78" style="stop-color:#F6600F"/>
					<stop  offset="0.95" style="stop-color:#FF6F00"/>
				</linearGradient>
				<path style="fill:url(#SVGID_00000078026618292695211680000012394925090094228667_);" d="M337.6,158.5v12.5h24.3v36.3h-24.3v84
					h-41.8v-84h-18.2v-36.3h18.2v-17c0-31.6,16-47.5,48.1-47.5c9.7,0,16.4,1.1,20.2,3.2v34.1c-2.3-0.9-5.8-1.4-10.4-1.4
					c-5.3,0-9.3,1.1-12,3.3C339,147.8,337.6,152.1,337.6,158.5z"/>
				
					<linearGradient id="SVGID_00000167390173464808936000000006793660734957332380_" gradientUnits="userSpaceOnUse" x1="385.7703" y1="202.7607" x2="428.9117" y2="202.7607">
					<stop  offset="0" style="stop-color:#BD0079"/>
					<stop  offset="0.46" style="stop-color:#E03B37"/>
					<stop  offset="0.78" style="stop-color:#F6600F"/>
					<stop  offset="0.95" style="stop-color:#FF6F00"/>
				</linearGradient>
				<path style="fill:url(#SVGID_00000167390173464808936000000006793660734957332380_);" d="M428.9,114.2v43.1h-43.1v-43.1H428.9z
					 M386.5,291.3V171h41.8v120.3H386.5z"/>
				
					<linearGradient id="SVGID_00000030451574426916827800000002817223686319814544_" gradientUnits="userSpaceOnUse" x1="450.4824" y1="229.5533" x2="525.6395" y2="229.5533">
					<stop  offset="0" style="stop-color:#BD0079"/>
					<stop  offset="0.46" style="stop-color:#E03B37"/>
					<stop  offset="0.78" style="stop-color:#F6600F"/>
					<stop  offset="0.95" style="stop-color:#FF6F00"/>
				</linearGradient>
				<path style="fill:url(#SVGID_00000030451574426916827800000002817223686319814544_);" d="M522.2,167.8c1.5,0,2.6,0.1,3.4,0.2
					v42.7h-6.8c-12,0-20.1,2.6-24.3,7.9v72.7h-41.8V205l-2.3-34.1h37.7l2.5,13.4C498.7,173.3,509.2,167.8,522.2,167.8z"/>
				
					<linearGradient id="SVGID_00000120555989339309621850000007546224062044758447_" gradientUnits="userSpaceOnUse" x1="544.4907" y1="231.2218" x2="660.2913" y2="231.2218">
					<stop  offset="0" style="stop-color:#BD0079"/>
					<stop  offset="0.46" style="stop-color:#E03B37"/>
					<stop  offset="0.78" style="stop-color:#F6600F"/>
					<stop  offset="0.95" style="stop-color:#FF6F00"/>
				</linearGradient>
				<path style="fill:url(#SVGID_00000120555989339309621850000007546224062044758447_);" d="M660.3,240.3v-12.5
					c0-18.3-4.8-32.9-14.4-43.7c-9.6-10.8-23.8-16.2-42.6-16.2c-18.9,0-33.5,5.5-43.6,16.3c-10.1,10.9-15.2,25.4-15.2,43.6v6.8
					c0,18.3,5.1,32.9,15.2,43.7c10.1,10.8,25.1,16.2,45,16.2c17.3,0,30.8-3.7,40.8-11.2c8.6-6.5,13.4-14.8,14.5-24.9h-1.8h-24.8h-8
					c-1.2,2.5-3.2,4.6-5.9,6.4c-4,2.7-8.9,4-14.6,4c-6.9,0-12.5-1.7-16.6-5c-4.3-3.5-6.9-9.3-7.7-17.4l-0.6-6.2h78.3H660.3z
					 M580.6,215.9c0.7-7.6,2.8-13.1,6.3-16.7c3.7-3.8,8.9-5.7,15.4-5.7c6.6,0,11.7,1.9,15.4,5.7c3.5,3.6,5.6,9.1,6.3,16.7l0.6,6.2
					H580L580.6,215.9z"/>
				
					<linearGradient id="SVGID_00000078021915947399878820000012922171358123734964_" gradientUnits="userSpaceOnUse" x1="679.0417" y1="198.9002" x2="765.5507" y2="198.9002">
					<stop  offset="0" style="stop-color:#BD0079"/>
					<stop  offset="0.46" style="stop-color:#E03B37"/>
					<stop  offset="0.78" style="stop-color:#F6600F"/>
					<stop  offset="0.95" style="stop-color:#FF6F00"/>
				</linearGradient>
				<path style="fill:url(#SVGID_00000078021915947399878820000012922171358123734964_);" d="M739,158.5V171h24.3v36.3H739v84h-41.8
					v-84H679V171h18.2v-17c0-31.6,16-47.5,48.1-47.5c9.7,0,16.4,1.1,20.2,3.2v34.1c-2.3-0.9-5.8-1.4-10.4-1.4c-5.3,0-9.3,1.1-12,3.3
					C740.3,147.9,739,152.1,739,158.5z"/>
				
					<linearGradient id="SVGID_00000015318230283194935360000013746882542692917676_" gradientUnits="userSpaceOnUse" x1="787.806" y1="200.4901" x2="829.5859" y2="200.4901">
					<stop  offset="0" style="stop-color:#BD0079"/>
					<stop  offset="0.46" style="stop-color:#E03B37"/>
					<stop  offset="0.78" style="stop-color:#F6600F"/>
					<stop  offset="0.95" style="stop-color:#FF6F00"/>
				</linearGradient>
				<path style="fill:url(#SVGID_00000015318230283194935360000013746882542692917676_);" d="M787.8,291.3V109.7h41.8v181.6H787.8z"
					/>
				
					<linearGradient id="SVGID_00000118398246622581166140000015348027417984503738_" gradientUnits="userSpaceOnUse" x1="847.9559" y1="253.8492" x2="977.3801" y2="253.8492">
					<stop  offset="0" style="stop-color:#BD0079"/>
					<stop  offset="0.46" style="stop-color:#E03B37"/>
					<stop  offset="0.78" style="stop-color:#F6600F"/>
					<stop  offset="0.95" style="stop-color:#FF6F00"/>
				</linearGradient>
				<path style="fill:url(#SVGID_00000118398246622581166140000015348027417984503738_);" d="M912.7,241.4L932,171h45.4l-42,113.5
					l-15,52.2h-50l19.5-52.2L848,171h45.4L912.7,241.4z"/>
			</g>
			<g>
				
					<linearGradient id="SVGID_00000098216669385426343910000017885001629612770207_" gradientUnits="userSpaceOnUse" x1="277.6723" y1="221.5914" x2="977.3801" y2="221.5914">
					<stop  offset="0" style="stop-color:#BD0079"/>
					<stop  offset="0.46" style="stop-color:#E03B37"/>
					<stop  offset="0.78" style="stop-color:#F6600F"/>
					<stop  offset="0.95" style="stop-color:#FF6F00"/>
				</linearGradient>
				<path style="fill:url(#SVGID_00000098216669385426343910000017885001629612770207_);" d="M337.6,158.5v12.5h24.3v36.3h-24.3v84
					h-41.8v-84h-18.2v-36.3h18.2v-17c0-31.6,16-47.5,48.1-47.5c9.7,0,16.4,1.1,20.2,3.2v34.1c-2.3-0.9-5.8-1.4-10.4-1.4
					c-5.3,0-9.3,1.1-12,3.3C339,147.8,337.6,152.1,337.6,158.5z"/>
				
					<linearGradient id="SVGID_00000062871211121864883770000015062924778787254412_" gradientUnits="userSpaceOnUse" x1="277.6723" y1="221.5914" x2="977.3801" y2="221.5914">
					<stop  offset="0" style="stop-color:#BD0079"/>
					<stop  offset="0.46" style="stop-color:#E03B37"/>
					<stop  offset="0.78" style="stop-color:#F6600F"/>
					<stop  offset="0.95" style="stop-color:#FF6F00"/>
				</linearGradient>
				<path style="fill:url(#SVGID_00000062871211121864883770000015062924778787254412_);" d="M428.9,114.2v43.1h-43.1v-43.1H428.9z
					 M386.5,291.3V171h41.8v120.3H386.5z"/>
				
					<linearGradient id="SVGID_00000063615434249025394460000006515280826295906456_" gradientUnits="userSpaceOnUse" x1="277.6723" y1="221.5914" x2="977.3801" y2="221.5914">
					<stop  offset="0" style="stop-color:#BD0079"/>
					<stop  offset="0.46" style="stop-color:#E03B37"/>
					<stop  offset="0.78" style="stop-color:#F6600F"/>
					<stop  offset="0.95" style="stop-color:#FF6F00"/>
				</linearGradient>
				<path style="fill:url(#SVGID_00000063615434249025394460000006515280826295906456_);" d="M522.2,167.8c1.5,0,2.6,0.1,3.4,0.2
					v42.7h-6.8c-12,0-20.1,2.6-24.3,7.9v72.7h-41.8V205l-2.3-34.1h37.7l2.5,13.4C498.7,173.3,509.2,167.8,522.2,167.8z"/>
				
					<linearGradient id="SVGID_00000161593849987710114790000015457229600383098240_" gradientUnits="userSpaceOnUse" x1="277.6723" y1="221.5914" x2="977.3801" y2="221.5914">
					<stop  offset="0" style="stop-color:#BD0079"/>
					<stop  offset="0.46" style="stop-color:#E03B37"/>
					<stop  offset="0.78" style="stop-color:#F6600F"/>
					<stop  offset="0.95" style="stop-color:#FF6F00"/>
				</linearGradient>
				<path style="fill:url(#SVGID_00000161593849987710114790000015457229600383098240_);" d="M660.3,240.3v-12.5
					c0-18.3-4.8-32.9-14.4-43.7c-9.6-10.8-23.8-16.2-42.6-16.2c-18.9,0-33.5,5.5-43.6,16.3c-10.1,10.9-15.2,25.4-15.2,43.6v6.8
					c0,18.3,5.1,32.9,15.2,43.7c10.1,10.8,25.1,16.2,45,16.2c17.3,0,30.8-3.7,40.8-11.2c8.6-6.5,13.4-14.8,14.5-24.9h-1.8h-24.8h-8
					c-1.2,2.5-3.2,4.6-5.9,6.4c-4,2.7-8.9,4-14.6,4c-6.9,0-12.5-1.7-16.6-5c-4.3-3.5-6.9-9.3-7.7-17.4l-0.6-6.2h78.3H660.3z
					 M580.6,215.9c0.7-7.6,2.8-13.1,6.3-16.7c3.7-3.8,8.9-5.7,15.4-5.7c6.6,0,11.7,1.9,15.4,5.7c3.5,3.6,5.6,9.1,6.3,16.7l0.6,6.2
					H580L580.6,215.9z"/>
				
					<linearGradient id="SVGID_00000146490910522086443210000006709629989289077178_" gradientUnits="userSpaceOnUse" x1="277.6723" y1="221.5914" x2="977.3801" y2="221.5914">
					<stop  offset="0" style="stop-color:#BD0079"/>
					<stop  offset="0.46" style="stop-color:#E03B37"/>
					<stop  offset="0.78" style="stop-color:#F6600F"/>
					<stop  offset="0.95" style="stop-color:#FF6F00"/>
				</linearGradient>
				<path style="fill:url(#SVGID_00000146490910522086443210000006709629989289077178_);" d="M739,158.5V171h24.3v36.3H739v84h-41.8
					v-84H679V171h18.2v-17c0-31.6,16-47.5,48.1-47.5c9.7,0,16.4,1.1,20.2,3.2v34.1c-2.3-0.9-5.8-1.4-10.4-1.4c-5.3,0-9.3,1.1-12,3.3
					C740.3,147.9,739,152.1,739,158.5z"/>
				
					<linearGradient id="SVGID_00000143605328452821799600000003321975813095624615_" gradientUnits="userSpaceOnUse" x1="277.6723" y1="221.5914" x2="977.3801" y2="221.5914">
					<stop  offset="0" style="stop-color:#BD0079"/>
					<stop  offset="0.46" style="stop-color:#E03B37"/>
					<stop  offset="0.78" style="stop-color:#F6600F"/>
					<stop  offset="0.95" style="stop-color:#FF6F00"/>
				</linearGradient>
				<path style="fill:url(#SVGID_00000143605328452821799600000003321975813095624615_);" d="M787.8,291.3V109.7h41.8v181.6H787.8z"
					/>
				
					<linearGradient id="SVGID_00000029744432405825692010000006606483648270078859_" gradientUnits="userSpaceOnUse" x1="277.6723" y1="221.5914" x2="977.3801" y2="221.5914">
					<stop  offset="0" style="stop-color:#BD0079"/>
					<stop  offset="0.46" style="stop-color:#E03B37"/>
					<stop  offset="0.78" style="stop-color:#F6600F"/>
					<stop  offset="0.95" style="stop-color:#FF6F00"/>
				</linearGradient>
				<path style="fill:url(#SVGID_00000029744432405825692010000006606483648270078859_);" d="M912.7,241.4L932,171h45.4l-42,113.5
					l-15,52.2h-50l19.5-52.2L848,171h45.4L912.7,241.4z"/>
			</g>
		</g>
	</g>
</g>
</svg>
